<svg xmlns="http://www.w3.org/2000/svg" width="100%" height="100%">
  <defs>
    <linearGradient id="grad1" x1="0%" y1="0%" x2="100%" y2="100%">
      <stop offset="0%" style="stop-color:#4A90E2;stop-opacity:0.2" />
      <stop offset="100%" style="stop-color:#50E3C2;stop-opacity:0.2" />
    </linearGradient>
    <pattern id="starPattern" x="0" y="0" width="300" height="300" patternUnits="userSpaceOnUse">
      <circle cx="15" cy="15" r="0.7" fill="#ffffff" opacity="0.5" />
      <circle cx="45" cy="30" r="0.5" fill="#ffffff" opacity="0.3" />
      <circle cx="90" cy="25" r="0.8" fill="#ffffff" opacity="0.6" />
      <circle cx="140" cy="50" r="0.6" fill="#ffffff" opacity="0.4" />
      <circle cx="180" cy="85" r="0.9" fill="#ffffff" opacity="0.7" />
      <circle cx="220" cy="40" r="0.7" fill="#ffffff" opacity="0.5" />
      <circle cx="30" cy="100" r="0.5" fill="#ffffff" opacity="0.3" />
      <circle cx="70" cy="150" r="0.8" fill="#ffffff" opacity="0.6" />
      <circle cx="120" cy="180" r="0.6" fill="#ffffff" opacity="0.4" />
      <circle cx="170" cy="220" r="0.7" fill="#ffffff" opacity="0.5" />
      <circle cx="230" cy="130" r="0.9" fill="#ffffff" opacity="0.7" />
      <circle cx="60" cy="270" r="0.6" fill="#ffffff" opacity="0.4" />
      <circle cx="110" cy="290" r="0.8" fill="#ffffff" opacity="0.6" />
      <circle cx="190" cy="260" r="0.5" fill="#ffffff" opacity="0.3" />
      <circle cx="250" cy="200" r="0.7" fill="#ffffff" opacity="0.5" />
      <circle cx="280" cy="70" r="0.6" fill="#ffffff" opacity="0.4" />
      <circle cx="10" cy="230" r="0.5" fill="#ffffff" opacity="0.3" />
      <circle cx="85" cy="210" r="0.7" fill="#ffffff" opacity="0.5" />
      <circle cx="150" cy="120" r="0.8" fill="#ffffff" opacity="0.6" />
      <circle cx="200" cy="170" r="0.6" fill="#ffffff" opacity="0.4" />
    </pattern>
  </defs>
  <rect width="100%" height="100%" fill="url(#grad1)" />
  <rect width="100%" height="100%" fill="url(#starPattern)" />
</svg>